<?xml version="1.0" encoding="UTF-8"?>
<svg width="112px" height="36px" viewBox="0 0 112 36" version="1.1" xmlns="http://www.w3.org/2000/svg" xmlns:xlink="http://www.w3.org/1999/xlink">
    <!-- Generator: sketchtool 51.2 (57519) - http://www.bohemiancoding.com/sketch -->
    <title>0170932F-98AD-4B14-B2B3-3E1768283757</title>
    <desc>Created with sketchtool.</desc>
    <defs></defs>
    <g id="Page-1" stroke="none" stroke-width="1" fill="none" fill-rule="evenodd">
        <g id="Desktop" transform="translate(-664.000000, -486.000000)" fill="#FFFFFF" fill-rule="nonzero">
            <path d="M664.015571,490.546058 C663.794307,488.179836 665.965203,485.6985 668.357363,486.043841 C673.934897,486.082212 679.51243,486.026787 685.089963,486.073685 C688.39223,486.231433 690.955557,488.597655 693.072181,490.959614 C694.779674,489.84685 696.265903,488.371692 698.165437,487.587214 C703.129274,485.493854 709.053316,485.336106 713.871035,487.928291 C715.862415,488.900361 717.427965,490.520477 719.09371,491.961527 C719.569637,490.439471 719.09371,488.520913 720.333626,487.33567 C721.026643,486.551193 722.011895,485.988416 723.076469,486.065158 C727.259619,486.039577 731.451119,486.073685 735.638443,486.048104 C737.617298,485.830668 739.458385,487.518999 739.909264,489.40345 C740.101305,493.483584 739.788195,497.572244 740.030333,501.648115 C741.023935,501.635325 741.149179,500.458609 741.428891,499.73382 C742.572786,495.274238 745.09854,490.94256 749.102174,488.606182 C753.944942,485.58765 760.127821,485.289208 765.400594,487.271718 C771.040749,489.518563 775.253122,495.078119 775.92109,501.226032 C775.987887,504.146504 776.250899,507.18209 775.211374,509.974658 C773.704271,514.707102 770.268411,518.923667 765.646907,520.705794 C762.373864,522.146845 758.700039,522.180952 755.214081,521.780187 C752.249973,521.370894 749.5948,519.882946 747.273611,518.015549 C746.622342,519.686827 745.699712,522.031731 743.574738,521.908091 C736.594472,521.908091 729.614207,521.916618 722.638115,521.899564 C721.71131,521.950725 720.838777,521.464691 720.283528,520.727111 C719.081186,519.503498 719.323324,517.627574 719.10206,516.050093 C717.51981,517.572149 715.996008,519.226373 713.996279,520.172861 C710.289056,522.108473 705.963964,522.283275 701.918582,521.669337 C697.384749,520.89765 693.443738,517.896172 690.934683,514.037738 C690.329337,513.044351 689.774088,512.012593 689.056023,511.095949 C687.381928,511.803684 685.578414,512.136234 683.941893,512.946292 C683.975291,514.830742 684.050437,516.72372 683.933543,518.60817 C683.820823,520.373244 682.276147,521.972043 680.510207,521.899564 C676.080744,521.903827 671.651281,521.942198 667.221818,521.886773 C665.259662,521.848402 663.907026,519.767832 664.019746,517.887645 C664.023921,508.776625 664.028096,499.661341 664.015571,490.546058 Z M756.679436,491.82936 C751.026757,492.822747 746.309232,498.275716 746.580594,504.21472 C746.417777,511.496714 753.899019,517.781059 760.87511,516.05862 C766.52779,514.924538 770.936379,509.249869 770.514724,503.3535 C770.239187,496.4339 763.425913,490.567375 756.679436,491.82936 Z M704.845117,491.697193 C699.689239,492.234389 695.076085,496.314523 693.919665,501.490367 C692.345765,507.864244 697.04659,514.76679 703.254518,516.033039 C709.545942,517.631837 716.271545,512.720328 717.461363,506.350715 C717.586607,504.794551 717.590782,503.221333 717.457188,501.665169 C716.317468,495.837015 710.660614,491.339062 704.845117,491.697193 Z M725.038626,492.144856 C724.458328,494.276588 724.654544,496.493588 724.63367,498.676481 C724.63367,503.515512 724.64202,508.354542 724.62532,513.197836 C724.596097,514.131534 724.813186,515.043915 724.984353,515.956297 C725.706594,516.203577 726.458058,516.386906 727.230396,516.344272 C731.279952,516.314427 735.333683,516.331481 739.383239,516.340008 C740.063731,516.399697 740.698301,516.131098 741.316171,515.866764 C741.332871,513.21489 741.34957,510.567279 741.291123,507.915405 C739.842467,507.267359 738.222645,507.676652 736.744765,507.250305 C735.70524,506.576678 734.440276,505.638716 734.519597,504.231774 C734.4528,500.944644 734.536296,497.657514 734.507072,494.374647 C734.523772,493.602961 734.281633,492.869645 734.093767,492.136329 C731.138009,491.526654 727.98186,491.449912 725.038626,492.144856 Z M669.931263,491.995635 C669.622328,492.758795 669.38019,493.560326 669.434462,494.395965 C669.459511,501.089601 669.430287,507.778975 669.446986,514.468348 C669.396889,515.150502 669.689125,515.764441 669.947962,516.374116 C672.745078,516.271793 675.567243,516.583026 678.34766,516.177997 C678.719218,513.973786 678.276689,511.709887 678.702518,509.526994 C679.474856,507.288676 681.971387,506.968917 683.950242,506.704582 C688.58427,506.022428 691.135073,500.185747 689.152043,496.016081 C688.087469,493.867295 685.995894,491.7313 683.449266,491.961527 C678.944657,491.982845 674.435873,491.92742 669.931263,491.995635 Z" id="Shape"></path>
        </g>
    </g>
</svg>